<?xml version="1.0" encoding="UTF-8" standalone="no"?>
<!-- Created with Inkscape (http://www.inkscape.org/) -->

<svg
   width="512"
   height="512"
   viewBox="0 0 512 512"
   version="1.1"
   id="svg1"
   xml:space="preserve"
   sodipodi:docname="logo.svg"
   inkscape:version="1.3.2 (091e20e, 2023-11-25, custom)"
   xmlns:inkscape="http://www.inkscape.org/namespaces/inkscape"
   xmlns:sodipodi="http://sodipodi.sourceforge.net/DTD/sodipodi-0.dtd"
   xmlns:xlink="http://www.w3.org/1999/xlink"
   xmlns="http://www.w3.org/2000/svg"
   xmlns:svg="http://www.w3.org/2000/svg"><sodipodi:namedview
     id="namedview1"
     pagecolor="#ffffff"
     bordercolor="#000000"
     borderopacity="0.25"
     inkscape:showpageshadow="2"
     inkscape:pageopacity="0.0"
     inkscape:pagecheckerboard="0"
     inkscape:deskcolor="#d1d1d1"
     inkscape:document-units="px"
     inkscape:zoom="1.1884766"
     inkscape:cx="199.41495"
     inkscape:cy="259.57601"
     inkscape:window-width="2560"
     inkscape:window-height="1494"
     inkscape:window-x="-11"
     inkscape:window-y="-11"
     inkscape:window-maximized="1"
     inkscape:current-layer="layer1" /><defs
     id="defs1"><linearGradient
       id="linearGradient12"
       inkscape:collect="always"><stop
         style="stop-color:#1b722f;stop-opacity:1"
         offset="0"
         id="stop11" /><stop
         style="stop-color:#28a745;stop-opacity:1"
         offset="1"
         id="stop12" /></linearGradient><linearGradient
       id="linearGradient8"
       inkscape:collect="always"><stop
         style="stop-color:#155724;stop-opacity:1"
         offset="0"
         id="stop8" /><stop
         style="stop-color:#28a745;stop-opacity:1"
         offset="1"
         id="stop9" /></linearGradient><linearGradient
       id="linearGradient4"
       inkscape:collect="always"><stop
         style="stop-color:#073984;stop-opacity:1"
         offset="0"
         id="stop4" /><stop
         style="stop-color:#094bac;stop-opacity:1"
         offset="1"
         id="stop5" /></linearGradient><linearGradient
       inkscape:collect="always"
       xlink:href="#linearGradient4"
       id="linearGradient5"
       x1="382.42236"
       y1="328.15118"
       x2="435.4314"
       y2="288.60477"
       gradientUnits="userSpaceOnUse"
       gradientTransform="matrix(1.6212182,0,0,1.6212182,-395.77105,-226.50506)" /><linearGradient
       inkscape:collect="always"
       xlink:href="#linearGradient12"
       id="linearGradient7"
       x1="223.39523"
       y1="230.54724"
       x2="275.26245"
       y2="206.82576"
       gradientUnits="userSpaceOnUse"
       gradientTransform="matrix(1.6212182,0,0,1.6212182,-159.09719,-154.20165)" /><linearGradient
       inkscape:collect="always"
       xlink:href="#linearGradient8"
       id="linearGradient11"
       x1="872.17548"
       y1="164.9735"
       x2="903.53259"
       y2="87.040283"
       gradientUnits="userSpaceOnUse"
       gradientTransform="matrix(1.6212182,0,0,1.6212182,-1035.2818,103.51911)" /><linearGradient
       inkscape:collect="always"
       xlink:href="#linearGradient4"
       id="linearGradient14"
       x1="132.4823"
       y1="370.97714"
       x2="378.70496"
       y2="370.97714"
       gradientUnits="userSpaceOnUse" /></defs><g
     inkscape:label="Layer 1"
     inkscape:groupmode="layer"
     id="layer1"><path
       style="fill:url(#linearGradient11);fill-opacity:1;stroke-width:1.62122"
       d="m 420.5438,375.55708 0.8489,-13.09139 c 0.42231,-6.51264 0.61201,-19.07227 0.73926,-27.89317 l 0.23137,-16.03803 -1.98376,-1.15572 c -1.09108,-0.63565 -3.20299,-2.32833 -4.69313,-3.76153 -7.62863,-7.3371 -12.77887,-19.90291 -15.0715,-36.77214 -0.84916,-6.24812 -1.23796,-11.95705 -0.81411,-11.95346 0.19594,0.002 2.48976,1.44314 5.09734,3.2033 l 4.74109,3.20028 1.99622,-2.69667 c 1.09789,-1.48317 5.57594,-7.41389 9.9512,-13.17938 4.37526,-5.76549 7.95499,-10.62044 7.95499,-10.78877 0,-0.28882 -7.43159,-5.49751 -23.44884,-16.43491 -3.8687,-2.64174 -7.13532,-5.06723 -7.25918,-5.38996 -0.22162,-0.57753 1.06609,-16.73676 1.35858,-17.0489 0.0825,-0.088 0.30899,0.26934 0.50316,0.79425 0.22013,0.59506 0.44462,-4.07551 0.59622,-12.40426 0.13375,-7.34728 0.52454,-16.55047 0.86845,-20.45152 0.64708,-7.33986 2.20564,-20.35323 2.46918,-20.61677 0.0825,-0.0825 1.0251,0.59819 2.09463,1.51267 l 1.94462,1.66272 0.0885,-7.79548 c 0.14591,-12.85256 0.89327,-30.54007 1.53664,-36.36945 1.28087,-11.60591 1.64716,-13.060679 2.70427,-10.74057 0.68831,1.51065 1.14217,1.22859 1.14217,-0.70982 0,-7.177357 4.41472,-34.33341 7.93236,-48.793963 1.44387,-5.935588 4.47881,-15.913699 5.01167,-16.477154 0.4287,-0.453309 4.22793,12.841491 5.93529,20.769589 2.53405,11.76685 5.44671,30.229444 6.89276,43.691457 0.14964,1.393241 0.40869,2.533151 0.57563,2.533151 0.16694,0 0.57941,-0.41038 0.9166,-0.91193 0.3372,-0.50158 0.70353,-0.82074 0.81407,-0.70929 0.29003,0.29246 1.85152,13.47622 2.32319,19.61481 0.22085,2.87459 0.40157,12.13072 0.40157,20.56921 0,8.43851 0.10214,15.34272 0.22684,15.34272 0.12484,0 1.16924,-0.7186 2.32104,-1.59691 1.15179,-0.87831 2.15184,-1.53927 2.2223,-1.46879 0.25634,0.25634 2.08446,15.98145 2.50029,21.50706 0.23486,3.12084 0.43507,11.96662 0.44489,19.65727 0.017,13.26202 0.0527,13.92031 0.69205,12.76709 0.42685,-0.76988 0.71168,-0.9929 0.77648,-0.60795 0.0563,0.33437 0.60807,4.98524 1.22623,10.33526 1.00345,8.68484 1.12355,11.11726 1.12054,22.69706 -0.003,13.2591 -0.31481,17.84429 -2.24304,33.03232 -2.04132,16.07903 -5.56571,27.11061 -11.32116,35.43618 -2.43504,3.5224 -7.22204,8.23347 -9.43157,9.28196 l -1.52188,0.72219 0.23019,8.9949 c 0.66392,25.94104 1.64525,48.08605 2.15202,48.56324 z"
       id="path1"
       sodipodi:nodetypes="csscssssscssssssssssscssssssssssssssssssssssssscscc" /><path
       style="fill:url(#linearGradient5);fill-opacity:1;stroke:none;stroke-width:1.62122;stroke-linecap:round;stroke-linejoin:round"
       d="M 132.4823,233.88362 V 370.97713 H 378.70497 V 234.56566 L 255.59364,153.74189 Z"
       id="path3" /><g
       id="g9"
       transform="matrix(1.6212182,0,0,1.6212182,-159.14181,-140.99076)"><rect
         style="font-variation-settings:normal;opacity:1;vector-effect:none;fill:#f9f9f9;fill-opacity:1;stroke:none;stroke-width:1;stroke-linecap:round;stroke-linejoin:round;stroke-miterlimit:4;stroke-dasharray:none;stroke-dashoffset:0;stroke-opacity:1;-inkscape-stroke:none;stop-color:#000000;stop-opacity:1"
         id="rect3"
         width="10.517667"
         height="10.09696"
         x="243.7995"
         y="224.65735" /><rect
         style="font-variation-settings:normal;opacity:1;vector-effect:none;fill:#f9f9f9;fill-opacity:1;stroke:none;stroke-width:1;stroke-linecap:round;stroke-linejoin:round;stroke-miterlimit:4;stroke-dasharray:none;stroke-dashoffset:0;stroke-opacity:1;-inkscape-stroke:none;stop-color:#000000;stop-opacity:1"
         id="rect3-3"
         width="10.517667"
         height="10.09696"
         x="257.31717"
         y="224.65735" /><rect
         style="font-variation-settings:normal;opacity:1;vector-effect:none;fill:#f9f9f9;fill-opacity:1;stroke:none;stroke-width:1;stroke-linecap:round;stroke-linejoin:round;stroke-miterlimit:4;stroke-dasharray:none;stroke-dashoffset:0;stroke-opacity:1;-inkscape-stroke:none;stop-color:#000000;stop-opacity:1"
         id="rect3-2"
         width="10.517667"
         height="10.09696"
         x="257.31717"
         y="237.7543" /><rect
         style="font-variation-settings:normal;opacity:1;vector-effect:none;fill:#f9f9f9;fill-opacity:1;stroke:none;stroke-width:1;stroke-linecap:round;stroke-linejoin:round;stroke-miterlimit:4;stroke-dasharray:none;stroke-dashoffset:0;stroke-opacity:1;-inkscape-stroke:none;stop-color:#000000;stop-opacity:1"
         id="rect3-6"
         width="10.517667"
         height="10.09696"
         x="243.7995"
         y="237.7543" /></g><rect
       style="fill:#f9f9f9;stroke:none;stroke-width:1.62122;stroke-linecap:round;stroke-linejoin:round"
       id="rect4"
       width="47.061951"
       height="71.957039"
       x="232.06265"
       y="299.02008" /><text
       xml:space="preserve"
       style="font-size:69.172px;font-family:Harrington;-inkscape-font-specification:Harrington;font-variation-settings:normal;opacity:1;vector-effect:none;fill:#094bac;fill-opacity:1;stroke:none;stroke-width:1.62122;stroke-linecap:round;stroke-linejoin:round;stroke-miterlimit:4;stroke-dasharray:none;stroke-dashoffset:0;stroke-opacity:1;-inkscape-stroke:none"
       x="15.9114"
       y="444.64462"
       id="text4"><tspan
         sodipodi:role="line"
         id="tspan4"
         x="15.9114"
         y="444.64462"
         style="font-style:normal;font-variant:normal;font-weight:normal;font-stretch:normal;font-size:69.172px;font-family:'Eras Bold ITC';-inkscape-font-specification:'Eras Bold ITC';fill:#094bac;stroke-width:1.62122">Luxury Living</tspan></text><path
       style="fill:url(#linearGradient7);fill-opacity:1;stroke:none;stroke-width:1.62122;stroke-linecap:round;stroke-linejoin:round"
       d="m 91.899886,243.77877 163.693754,-109.81122 74.68527,50.13121 v -23.872 h 27.96435 v 41.94653 L 419.96944,243.43775 407.6924,260.83021 255.59364,160.22676 103.83589,260.83021 Z"
       id="path2" /><path
       style="opacity:1;vector-effect:none;fill:url(#linearGradient14);fill-opacity:1;stroke:none;stroke-width:1.62122;stroke-linecap:round;stroke-linejoin:round;stroke-miterlimit:4;stroke-dasharray:none;stroke-dashoffset:0;stroke-opacity:1;-inkscape-stroke:none"
       d="M 30.173706,381.21331 H 482.03665 c 0,0 -17.46742,-18.07984 -226.44301,-18.07984 -208.975593,0 -225.419934,18.07984 -225.419934,18.07984 z"
       id="path11"
       sodipodi:nodetypes="cczc" /></g></svg>
